<?xml version="1.0" encoding="utf-8"?>
<!-- Generator: Adobe Illustrator 27.6.1, SVG Export Plug-In . SVG Version: 6.00 Build 0)  -->
<svg version="1.1" id="Layer_1" xmlns="http://www.w3.org/2000/svg" xmlns:xlink="http://www.w3.org/1999/xlink" x="0px" y="0px"
	 viewBox="0 0 300.1 194.9" style="enable-background:new 0 0 300.1 194.9;" xml:space="preserve">
<style type="text/css">
	.st0{fill:#7FC462;}
	.st1{fill:#3DB4CD;}
	.st2{display:none;}
	.st3{display:inline;fill:#3DB4CD;}
	.st4{font-family:'SegoeUI-Bold';}
	.st5{font-size:58.0511px;}
	.st6{letter-spacing:-2;}
	.st7{display:inline;fill:#7FC462;}
	.st8{font-family:'SegoeUI';}
</style>
<g>
	<path class="st0" d="M228.8,84.5h-2.6c-0.6,0-1.1-0.5-1.1-1.1V45.7c0-0.6,0.5-1.1,1.1-1.1h2.6c0.6,0,1.1,0.5,1.1,1.1v37.7
		C229.9,84,229.4,84.5,228.8,84.5z"/>
	<path class="st1" d="M219.7,84.5h-2.6c-0.6,0-1.1-0.5-1.1-1.1V45.7c0-0.6,0.5-1.1,1.1-1.1h2.6c0.6,0,1.1,0.5,1.1,1.1v37.7
		C220.8,84,220.3,84.5,219.7,84.5z"/>
	<path class="st0" d="M210.6,84.5H208c-0.6,0-1.1-0.5-1.1-1.1V45.7c0-0.6,0.5-1.1,1.1-1.1h2.6c0.6,0,1.1,0.5,1.1,1.1v37.7
		C211.7,84,211.2,84.5,210.6,84.5z"/>
	<path class="st1" d="M201.5,84.5h-2.6c-0.6,0-1.1-0.5-1.1-1.1V45.7c0-0.6,0.5-1.1,1.1-1.1h2.6c0.6,0,1.1,0.5,1.1,1.1v37.7
		C202.6,84,202.1,84.5,201.5,84.5z"/>
	<path class="st0" d="M192.4,84.5h-2.6c-0.6,0-1.1-0.5-1.1-1.1V45.7c0-0.6,0.5-1.1,1.1-1.1h2.6c0.6,0,1.1,0.5,1.1,1.1v37.7
		C193.5,84,193,84.5,192.4,84.5z"/>
	<path class="st1" d="M183.3,84.5h-2.6c-0.6,0-1.1-0.5-1.1-1.1V45.7c0-0.6,0.5-1.1,1.1-1.1h2.6c0.6,0,1.1,0.5,1.1,1.1v37.7
		C184.4,84,183.9,84.5,183.3,84.5z"/>
	<path class="st0" d="M174.2,84.5h-2.6c-0.6,0-1.1-0.5-1.1-1.1V45.7c0-0.6,0.5-1.1,1.1-1.1h2.6c0.6,0,1.1,0.5,1.1,1.1v37.7
		C175.3,84,174.8,84.5,174.2,84.5z"/>
	<path class="st1" d="M165,86.8h-2.6c-0.6,0-1.1-0.5-1.1-1.1V48c0-0.6,0.5-1.1,1.1-1.1h2.6c0.6,0,1.1,0.5,1.1,1.1v37.7
		C166.2,86.3,165.7,86.8,165,86.8z"/>
	<path class="st0" d="M155.9,80.6h-2.6c-0.6,0-1.1-0.5-1.1-1.1V41.8c0-0.6,0.5-1.1,1.1-1.1h2.6c0.6,0,1.1,0.5,1.1,1.1v37.7
		C157,80.1,156.5,80.6,155.9,80.6z"/>
	<path class="st1" d="M146.8,90.2h-2.6c-0.6,0-1.1-0.5-1.1-1.1V51.4c0-0.6,0.5-1.1,1.1-1.1h2.6c0.6,0,1.1,0.5,1.1,1.1v37.7
		C147.9,89.7,147.4,90.2,146.8,90.2z"/>
	<path class="st0" d="M137.7,73.6h-2.6c-0.6,0-1.1-0.5-1.1-1.1V34.8c0-0.6,0.5-1.1,1.1-1.1h2.6c0.6,0,1.1,0.5,1.1,1.1v37.7
		C138.8,73.1,138.3,73.6,137.7,73.6z"/>
	<path class="st1" d="M128.6,95.3H126c-0.6,0-1.1-0.5-1.1-1.1V56.4c0-0.6,0.5-1.1,1.1-1.1h2.6c0.6,0,1.1,0.5,1.1,1.1v37.7
		C129.7,94.8,129.2,95.3,128.6,95.3z"/>
	<path class="st0" d="M119.5,66.8h-2.6c-0.6,0-1.1-0.5-1.1-1.1V28c0-0.6,0.5-1.1,1.1-1.1h2.6c0.6,0,1.1,0.5,1.1,1.1v37.7
		C120.6,66.3,120.1,66.8,119.5,66.8z"/>
	<path class="st1" d="M110.4,103.6h-2.6c-0.6,0-1.1-0.5-1.1-1.1V64.8c0-0.6,0.5-1.1,1.1-1.1h2.6c0.6,0,1.1,0.5,1.1,1.1v37.7
		C111.5,103.1,111,103.6,110.4,103.6z"/>
	<path class="st0" d="M101.3,56.8h-2.6c-0.6,0-1.1-0.5-1.1-1.1V18c0-0.6,0.5-1.1,1.1-1.1h2.6c0.6,0,1.1,0.5,1.1,1.1v37.7
		C102.4,56.3,101.9,56.8,101.3,56.8z"/>
	<path class="st1" d="M92.2,113.6h-2.6c-0.6,0-1.1-0.5-1.1-1.1V74.8c0-0.6,0.5-1.1,1.1-1.1h2.6c0.6,0,1.1,0.5,1.1,1.1v37.7
		C93.3,113.1,92.8,113.6,92.2,113.6z"/>
	<path class="st0" d="M83,41.3h-2.6c-0.6,0-1.1-0.5-1.1-1.1V2.4c0-0.6,0.5-1.1,1.1-1.1l2.6,0c0.6,0,1.1,0.5,1.1,1.1v37.7
		C84.2,40.8,83.7,41.3,83,41.3z"/>
	<path class="st1" d="M73.9,128.9h-2.6c-0.6,0-1.1-0.5-1.1-1.1V90.1c0-0.6,0.5-1.1,1.1-1.1h2.6c0.6,0,1.1,0.5,1.1,1.1v37.7
		C75,128.4,74.5,128.9,73.9,128.9z"/>
</g>
<text transform="matrix(1 0 0 1 10.4346 187.5656)" class="st2"><tspan x="0" y="0" class="st3 st4 st5 st6">SUS</tspan><tspan x="98.4" y="0" class="st7 st8 st5 st6">Contata</tspan></text>
<g>
	<path class="st1" d="M13.2,186v-9.1c1.6,1.4,3.4,2.4,5.4,3.1c1.9,0.7,3.9,1,5.8,1c1.2,0,2.2-0.1,3-0.3c0.9-0.2,1.6-0.5,2.2-0.9
		c0.6-0.4,1-0.8,1.3-1.3c0.3-0.5,0.4-1,0.4-1.6c0-0.8-0.2-1.5-0.7-2.1c-0.5-0.6-1.1-1.2-1.9-1.7s-1.7-1-2.8-1.5
		c-1.1-0.5-2.2-1-3.5-1.5c-3.2-1.3-5.5-2.9-7.1-4.8c-1.6-1.9-2.3-4.2-2.3-6.9c0-2.1,0.4-3.9,1.3-5.5c0.9-1.5,2-2.8,3.5-3.8
		s3.2-1.7,5.1-2.2c1.9-0.5,4-0.7,6.1-0.7c2.1,0,4,0.1,5.6,0.4c1.6,0.3,3.1,0.6,4.5,1.2v8.5c-0.7-0.5-1.4-0.9-2.2-1.2
		c-0.8-0.4-1.6-0.7-2.5-0.9c-0.9-0.2-1.7-0.4-2.5-0.5c-0.8-0.1-1.6-0.2-2.4-0.2c-1,0-2,0.1-2.8,0.3c-0.9,0.2-1.6,0.5-2.2,0.8
		c-0.6,0.4-1,0.8-1.4,1.3c-0.3,0.5-0.5,1.1-0.5,1.7c0,0.7,0.2,1.3,0.5,1.8c0.4,0.5,0.9,1,1.5,1.5c0.7,0.5,1.5,1,2.4,1.4
		c0.9,0.5,2,0.9,3.2,1.4c1.6,0.7,3.1,1.4,4.4,2.2c1.3,0.8,2.4,1.6,3.3,2.6c0.9,1,1.6,2.1,2.1,3.3c0.5,1.2,0.7,2.7,0.7,4.3
		c0,2.3-0.4,4.2-1.3,5.7c-0.9,1.5-2,2.8-3.5,3.7c-1.5,1-3.2,1.6-5.1,2.1c-2,0.4-4,0.6-6.2,0.6c-2.2,0-4.4-0.2-6.4-0.6
		C16.4,187.3,14.7,186.8,13.2,186z"/>
	<path class="st1" d="M77.9,170c0,12.2-5.7,18.3-17.1,18.3c-11,0-16.6-6-16.6-17.9v-23.5h9.2v23.6c0,6.6,2.6,9.9,7.7,9.9
		c5,0,7.6-3.2,7.6-9.5v-23.9h9.2V170z"/>
	<path class="st1" d="M81.9,186v-9.1c1.6,1.4,3.4,2.4,5.4,3.1c1.9,0.7,3.9,1,5.8,1c1.2,0,2.2-0.1,3-0.3c0.9-0.2,1.6-0.5,2.2-0.9
		c0.6-0.4,1-0.8,1.3-1.3c0.3-0.5,0.4-1,0.4-1.6c0-0.8-0.2-1.5-0.7-2.1c-0.5-0.6-1.1-1.2-1.9-1.7s-1.7-1-2.8-1.5
		c-1.1-0.5-2.2-1-3.5-1.5c-3.2-1.3-5.5-2.9-7.1-4.8c-1.6-1.9-2.3-4.2-2.3-6.9c0-2.1,0.4-3.9,1.3-5.5c0.9-1.5,2-2.8,3.5-3.8
		s3.2-1.7,5.1-2.2c1.9-0.5,4-0.7,6.1-0.7c2.1,0,4,0.1,5.6,0.4c1.6,0.3,3.1,0.6,4.5,1.2v8.5c-0.7-0.5-1.4-0.9-2.2-1.2
		c-0.8-0.4-1.6-0.7-2.5-0.9c-0.9-0.2-1.7-0.4-2.5-0.5c-0.8-0.1-1.6-0.2-2.4-0.2c-1,0-2,0.1-2.8,0.3c-0.9,0.2-1.6,0.5-2.2,0.8
		c-0.6,0.4-1,0.8-1.4,1.3c-0.3,0.5-0.5,1.1-0.5,1.7c0,0.7,0.2,1.3,0.5,1.8c0.4,0.5,0.9,1,1.5,1.5c0.7,0.5,1.5,1,2.4,1.4
		c0.9,0.5,2,0.9,3.2,1.4c1.6,0.7,3.1,1.4,4.4,2.2c1.3,0.8,2.4,1.6,3.3,2.6c0.9,1,1.6,2.1,2.1,3.3c0.5,1.2,0.7,2.7,0.7,4.3
		c0,2.3-0.4,4.2-1.3,5.7c-0.9,1.5-2,2.8-3.5,3.7c-1.5,1-3.2,1.6-5.1,2.1c-2,0.4-4,0.6-6.2,0.6c-2.2,0-4.4-0.2-6.4-0.6
		C85.1,187.3,83.4,186.8,81.9,186z"/>
	<path class="st0" d="M141.8,185.9c-3,1.6-6.7,2.4-11.2,2.4c-5.8,0-10.4-1.9-13.9-5.6c-3.5-3.7-5.2-8.6-5.2-14.7
		c0-6.5,2-11.8,5.9-15.8s8.9-6,14.9-6c3.9,0,7,0.6,9.6,1.7v5.1c-2.9-1.6-6.1-2.4-9.6-2.4c-4.7,0-8.5,1.6-11.4,4.7
		c-2.9,3.1-4.4,7.3-4.4,12.5c0,5,1.4,8.9,4.1,11.8c2.7,2.9,6.3,4.4,10.7,4.4c4.1,0,7.6-0.9,10.6-2.7V185.9z"/>
	<path class="st0" d="M158.7,188.2c-4.3,0-7.7-1.4-10.3-4.1c-2.6-2.7-3.8-6.3-3.8-10.8c0-4.9,1.3-8.7,4-11.4s6.3-4.1,10.8-4.1
		c4.3,0,7.7,1.3,10.1,4c2.4,2.7,3.6,6.4,3.6,11.1c0,4.6-1.3,8.3-3.9,11.1C166.6,186.9,163.1,188.2,158.7,188.2z M159,161.8
		c-3,0-5.3,1-7.1,3c-1.7,2-2.6,4.8-2.6,8.4c0,3.4,0.9,6.2,2.6,8.1s4.1,3,7.1,3c3,0,5.3-1,6.9-2.9c1.6-1.9,2.4-4.7,2.4-8.3
		c0-3.6-0.8-6.4-2.4-8.4C164.3,162.8,162,161.8,159,161.8z"/>
	<path class="st0" d="M201.7,187.6h-4.6V171c0-6.2-2.2-9.2-6.7-9.2c-2.3,0-4.2,0.9-5.8,2.6c-1.5,1.7-2.3,4-2.3,6.6v16.6h-4.6v-29
		h4.6v4.8h0.1c2.2-3.7,5.4-5.5,9.5-5.5c3.2,0,5.6,1,7.3,3.1c1.7,2.1,2.5,5,2.5,8.9V187.6z"/>
	<path class="st0" d="M221.1,187.3c-1.1,0.6-2.5,0.9-4.3,0.9c-5.1,0-7.6-2.8-7.6-8.5v-17.2h-5v-4h5v-7.1l4.6-1.5v8.6h7.3v4h-7.3
		v16.4c0,1.9,0.3,3.3,1,4.2c0.7,0.8,1.8,1.2,3.3,1.2c1.2,0,2.2-0.3,3-1V187.3z"/>
	<path class="st0" d="M245.1,187.6h-4.6V183h-0.1c-2,3.5-5,5.2-8.9,5.2c-2.9,0-5.2-0.8-6.8-2.3c-1.6-1.5-2.5-3.6-2.5-6.1
		c0-5.4,3.2-8.6,9.6-9.5l8.7-1.2c0-4.9-2-7.4-6-7.4c-3.5,0-6.7,1.2-9.5,3.6v-4.8c2.9-1.8,6.1-2.7,9.9-2.7c6.8,0,10.2,3.6,10.2,10.8
		V187.6z M240.5,172.9l-7,1c-2.2,0.3-3.8,0.8-4.9,1.6c-1.1,0.8-1.6,2.1-1.6,4.1c0,1.4,0.5,2.6,1.5,3.5s2.4,1.3,4,1.3
		c2.3,0,4.2-0.8,5.7-2.4c1.5-1.6,2.3-3.7,2.3-6.1V172.9z"/>
	<path class="st0" d="M264.5,187.3c-1.1,0.6-2.5,0.9-4.3,0.9c-5.1,0-7.6-2.8-7.6-8.5v-17.2h-5v-4h5v-7.1l4.6-1.5v8.6h7.3v4h-7.3
		v16.4c0,1.9,0.3,3.3,1,4.2c0.7,0.8,1.8,1.2,3.3,1.2c1.2,0,2.2-0.3,3-1V187.3z"/>
	<path class="st0" d="M288.5,187.6h-4.6V183h-0.1c-2,3.5-5,5.2-8.9,5.2c-2.9,0-5.2-0.8-6.8-2.3c-1.6-1.5-2.5-3.6-2.5-6.1
		c0-5.4,3.2-8.6,9.6-9.5l8.7-1.2c0-4.9-2-7.4-6-7.4c-3.5,0-6.7,1.2-9.5,3.6v-4.8c2.9-1.8,6.1-2.7,9.9-2.7c6.8,0,10.2,3.6,10.2,10.8
		V187.6z M283.9,172.9l-7,1c-2.2,0.3-3.8,0.8-4.9,1.6c-1.1,0.8-1.6,2.1-1.6,4.1c0,1.4,0.5,2.6,1.5,3.5s2.4,1.3,4,1.3
		c2.3,0,4.2-0.8,5.7-2.4c1.5-1.6,2.3-3.7,2.3-6.1V172.9z"/>
</g>
</svg>
